<?xml version="1.0" standalone="no"?>
<!DOCTYPE svg PUBLIC "-//W3C//DTD SVG 20010904//EN"
 "http://www.w3.org/TR/2001/REC-SVG-20010904/DTD/svg10.dtd">
<svg version="1.0" xmlns="http://www.w3.org/2000/svg"
 width="181.000000pt" height="180.000000pt" viewBox="0 0 181.000000 180.000000"
 preserveAspectRatio="xMidYMid meet">

<g transform="translate(0.000000,180.000000) scale(0.100000,-0.100000)"
fill="#000000" stroke="none">
<path d="M865 1540 c-3 -11 -11 -20 -16 -20 -7 0 -8 -32 -5 -87 4 -49 9 -134
12 -190 3 -57 9 -103 14 -103 5 0 11 -37 14 -82 8 -132 17 -191 31 -205 20
-20 371 -19 391 1 21 21 21 671 0 692 -12 11 -56 14 -225 14 -201 0 -210 -1
-216 -20z"/>
<path d="M583 1495 c-13 -13 -23 -29 -23 -35 0 -7 -18 -29 -40 -50 -22 -21
-40 -45 -40 -52 0 -7 -9 -20 -20 -28 -39 -28 -25 -55 83 -164 56 -58 113 -118
127 -135 28 -35 36 -37 56 -17 16 16 19 46 5 46 -10 0 -17 93 -27 328 l-5 132
-47 -1 c-36 0 -52 -6 -69 -24z"/>
<path d="M290 1160 c-8 -11 -19 -20 -25 -20 -6 0 -17 -9 -25 -20 -8 -11 -18
-20 -22 -20 -5 0 -42 -34 -83 -75 -54 -53 -75 -82 -75 -100 0 -14 5 -25 10
-25 6 0 10 -7 10 -15 0 -20 105 -125 125 -125 8 0 15 5 15 10 0 15 29 12 46
-4 8 -8 14 -22 14 -30 0 -9 5 -16 10 -16 6 0 10 -9 10 -20 0 -11 5 -20 10 -20
6 0 10 -9 10 -20 0 -11 5 -20 10 -20 6 0 10 -7 10 -15 0 -24 246 -265 271
-265 24 0 49 22 49 44 0 9 5 16 10 16 6 0 10 9 10 20 0 11 5 20 10 20 6 0 10
23 10 50 0 28 -4 50 -10 50 -5 0 -10 8 -10 18 0 10 -9 24 -20 32 -11 8 -20 22
-20 32 0 10 -4 18 -10 18 -5 0 -10 9 -10 20 0 11 -4 20 -10 20 -6 0 -10 45
-10 115 l0 115 -92 94 c-51 51 -100 103 -108 114 -8 12 -20 22 -27 22 -7 0
-13 5 -13 10 0 18 -55 11 -70 -10z"/>
<path d="M918 698 c-16 -19 -18 -45 -18 -189 0 -214 -3 -209 139 -209 l101 0
0 30 c0 28 3 30 35 30 19 0 35 -4 35 -10 0 -5 11 -10 25 -10 14 0 25 -4 25
-10 0 -5 14 -10 30 -10 17 0 30 -4 30 -10 0 -6 68 -10 185 -10 184 0 186 0
210 25 25 24 33 55 15 55 -5 0 -10 14 -10 30 0 17 -4 30 -10 30 -5 0 -10 7
-10 15 0 20 -45 65 -65 65 -8 0 -15 5 -15 10 0 6 -27 10 -60 10 -33 0 -60 4
-60 10 0 6 -9 10 -20 10 -11 0 -20 5 -20 10 0 6 -7 10 -15 10 -18 0 -105 84
-105 100 0 35 -26 40 -217 40 -181 0 -189 -1 -205 -22z"/>
</g>
</svg>
