<?xml version="1.0" standalone="no"?>
<!DOCTYPE svg PUBLIC "-//W3C//DTD SVG 20010904//EN"
 "http://www.w3.org/TR/2001/REC-SVG-20010904/DTD/svg10.dtd">
<svg version="1.0" xmlns="http://www.w3.org/2000/svg"
 width="181.000000pt" height="180.000000pt" viewBox="0 0 181.000000 180.000000"
 preserveAspectRatio="xMidYMid meet">

<g transform="translate(0.000000,180.000000) scale(0.100000,-0.100000)"
fill="#000000" stroke="none">
<path d="M1240 1550 c0 -5 -16 -10 -35 -10 -19 0 -35 -4 -35 -10 0 -5 -11 -10
-25 -10 -14 0 -25 -4 -25 -10 0 -5 -9 -10 -20 -10 -11 0 -20 -4 -20 -10 0 -5
-8 -10 -18 -10 -10 0 -24 -9 -32 -20 -8 -11 -21 -20 -30 -20 -9 0 -22 -9 -30
-20 -8 -11 -21 -20 -28 -20 -8 0 -27 -13 -42 -30 -15 -16 -33 -30 -39 -30 -6
0 -11 -4 -11 -10 0 -5 -5 -10 -10 -10 -13 0 -370 -357 -370 -370 0 -5 -16 -25
-35 -44 -19 -20 -35 -41 -35 -48 0 -8 -9 -20 -20 -28 -11 -8 -20 -22 -20 -32
0 -10 -4 -18 -9 -18 -5 0 -14 -13 -21 -30 -7 -16 -16 -30 -21 -30 -5 0 -9 -9
-9 -20 0 -11 -4 -20 -8 -20 -4 0 -13 -21 -20 -47 -7 -27 -17 -62 -22 -79 -6
-17 -10 -49 -10 -72 0 -46 20 -122 32 -122 5 0 8 -7 8 -15 0 -9 5 -21 10 -28
39 -46 50 -61 50 -69 0 -4 7 -8 15 -8 8 0 15 -4 15 -10 0 -5 7 -10 15 -10 8 0
15 -4 15 -10 0 -5 9 -10 20 -10 11 0 20 -4 20 -10 0 -5 16 -10 35 -10 38 0 85
36 85 65 0 8 4 15 9 15 5 0 14 14 21 30 7 17 16 30 21 30 5 0 9 9 9 20 0 11 4
20 9 20 5 0 14 14 21 30 7 17 16 30 21 30 5 0 9 9 9 20 0 11 5 20 10 20 6 0
10 9 10 20 0 11 4 20 8 20 12 0 32 47 32 75 0 14 -4 25 -10 25 -5 0 -10 9 -10
20 0 11 -4 20 -9 20 -5 0 -14 14 -21 30 -7 17 -16 30 -21 30 -5 0 -9 9 -9 20
0 11 -4 20 -10 20 -20 0 -10 51 15 76 14 14 25 29 25 34 0 13 237 250 250 250
5 0 10 5 10 10 0 6 6 10 13 10 7 0 19 9 27 20 15 21 70 28 70 10 0 -5 9 -10
20 -10 11 0 20 -4 20 -10 0 -5 9 -10 20 -10 11 0 20 -4 20 -10 0 -5 7 -10 15
-10 8 0 15 -4 15 -10 0 -5 9 -10 20 -10 11 0 20 -4 20 -10 0 -5 11 -10 25 -10
14 0 25 5 25 10 0 6 9 10 20 10 11 0 20 5 20 10 0 6 9 10 20 10 11 0 20 5 20
10 0 6 8 10 18 10 10 0 24 9 32 20 8 11 22 20 32 20 10 0 18 5 18 10 0 6 9 10
20 10 11 0 20 5 20 10 0 6 7 10 15 10 8 0 15 5 15 10 0 6 7 10 15 10 8 0 15 5
15 10 0 6 7 10 15 10 27 0 65 47 65 79 0 33 -19 81 -32 81 -4 0 -8 7 -8 15 0
9 -16 31 -35 50 -19 19 -41 35 -50 35 -8 0 -15 5 -15 10 0 6 -7 10 -15 10 -8
0 -15 5 -15 10 0 6 -11 10 -25 10 -14 0 -25 5 -25 10 0 6 -33 10 -80 10 -47 0
-80 -4 -80 -10z"/>
</g>
</svg>
