<?xml version="1.0" standalone="no"?>
<!DOCTYPE svg PUBLIC "-//W3C//DTD SVG 20010904//EN"
 "http://www.w3.org/TR/2001/REC-SVG-20010904/DTD/svg10.dtd">
<svg version="1.0" xmlns="http://www.w3.org/2000/svg"
 width="181.000000pt" height="180.000000pt" viewBox="0 0 181.000000 180.000000"
 preserveAspectRatio="xMidYMid meet">

<g transform="translate(0.000000,180.000000) scale(0.100000,-0.100000)"
fill="#000000" stroke="none">
<path d="M800 1670 c0 -5 -20 -10 -45 -10 -25 0 -45 -4 -45 -10 0 -5 -16 -10
-35 -10 -19 0 -35 -4 -35 -10 0 -5 -9 -10 -20 -10 -11 0 -20 -4 -20 -10 0 -5
-9 -10 -20 -10 -11 0 -20 -4 -20 -10 0 -5 -7 -10 -16 -10 -9 0 -29 -13 -44
-30 -15 -16 -34 -30 -40 -30 -13 0 -50 -38 -50 -51 0 -4 -11 -19 -25 -33 -14
-14 -25 -32 -25 -41 0 -8 -4 -15 -8 -15 -12 0 -52 -88 -52 -115 0 -14 -4 -25
-10 -25 -5 0 -10 -18 -10 -40 0 -22 -4 -40 -10 -40 -6 0 -10 -93 -10 -260 0
-167 4 -260 10 -260 6 0 10 -9 10 -20 0 -11 5 -20 10 -20 6 0 10 -7 10 -15 0
-20 65 -85 85 -85 8 0 15 -9 15 -20 0 -11 5 -20 10 -20 6 0 10 -9 10 -20 0
-11 5 -20 10 -20 6 0 10 -7 10 -16 0 -9 13 -29 30 -44 16 -15 30 -33 30 -39 0
-16 66 -81 82 -81 8 0 20 -9 28 -20 8 -11 22 -20 32 -20 10 0 18 -4 18 -10 0
-5 7 -10 15 -10 8 0 15 -4 15 -10 0 -5 11 -10 25 -10 14 0 25 -4 25 -10 0 -5
18 -10 40 -10 22 0 40 -4 40 -10 0 -6 40 -10 100 -10 60 0 100 4 100 10 0 6
18 10 40 10 22 0 40 5 40 10 0 6 9 10 20 10 11 0 20 5 20 10 0 6 9 10 20 10
11 0 20 5 20 10 0 6 8 10 18 10 10 0 24 9 32 20 8 11 20 20 27 20 7 0 13 5 13
10 0 6 5 10 11 10 12 0 49 38 49 50 0 5 13 22 29 39 17 18 33 41 36 52 4 10
11 19 16 19 5 0 9 9 9 20 0 11 5 20 10 20 6 0 10 9 10 20 0 11 7 20 15 20 8 0
15 5 15 10 0 6 5 10 10 10 17 0 60 47 60 65 0 8 4 15 8 15 4 0 13 19 20 43 16
53 11 455 -7 537 -7 30 -14 70 -18 88 -3 17 -9 32 -14 32 -5 0 -9 9 -9 20 0
11 -4 20 -10 20 -5 0 -10 9 -10 20 0 11 -4 20 -9 20 -5 0 -13 9 -16 20 -9 28
-100 120 -119 120 -9 0 -16 5 -16 10 0 6 -11 10 -25 10 -14 0 -25 5 -25 10 0
6 -14 10 -31 10 -22 0 -40 9 -59 30 -15 17 -35 30 -44 30 -9 0 -16 5 -16 10 0
6 -9 10 -20 10 -11 0 -20 5 -20 10 0 6 -18 10 -40 10 -22 0 -40 5 -40 10 0 6
-43 10 -110 10 -67 0 -110 -4 -110 -10z m455 -395 c14 -13 25 -31 25 -40 0 -8
5 -15 10 -15 6 0 10 -9 10 -20 0 -11 5 -20 10 -20 6 0 10 -9 10 -20 0 -11 5
-20 10 -20 6 0 10 -9 10 -20 0 -11 5 -20 10 -20 6 0 10 -18 10 -40 0 -22 5
-40 10 -40 6 0 10 -22 10 -50 0 -27 5 -50 10 -50 6 0 10 -30 10 -70 l0 -70 30
0 30 0 0 -60 c0 -33 -4 -60 -9 -60 -5 0 -13 -9 -16 -20 -3 -11 -13 -20 -21
-20 -8 0 -14 -4 -14 -10 0 -5 -7 -10 -16 -10 -18 0 -44 -23 -44 -39 0 -17 -43
-101 -52 -101 -4 0 -8 -7 -8 -15 0 -20 -125 -145 -145 -145 -8 0 -15 -4 -15
-10 0 -5 -9 -10 -20 -10 -11 0 -20 -4 -20 -10 0 -5 -16 -10 -35 -10 -19 0 -35
-4 -35 -10 0 -6 -38 -10 -95 -10 -57 0 -95 4 -95 10 0 6 -13 10 -30 10 -16 0
-30 5 -30 10 0 6 -9 10 -20 10 -11 0 -20 5 -20 10 0 6 -7 10 -15 10 -19 0
-145 124 -145 143 0 7 -9 19 -20 27 -11 8 -20 22 -20 32 0 10 -4 18 -10 18 -5
0 -10 12 -10 26 0 29 -21 54 -44 54 -9 0 -16 5 -16 10 0 6 -9 10 -20 10 -13 0
-20 7 -20 20 0 11 -4 20 -10 20 -6 0 -10 27 -10 60 l0 60 30 0 c28 0 30 2 30
40 0 22 5 40 10 40 6 0 10 11 10 25 0 26 58 95 80 95 5 0 10 5 10 10 0 6 11
10 25 10 14 0 25 5 25 10 0 6 14 10 30 10 17 0 30 5 30 10 0 6 23 10 50 10 28
0 50 5 50 10 0 6 23 10 50 10 28 0 50 5 50 10 0 6 18 10 40 10 22 0 40 5 40
10 0 6 14 10 30 10 17 0 30 5 30 10 0 6 9 10 20 10 11 0 20 5 20 10 0 6 8 10
18 10 10 0 24 9 32 20 8 11 19 20 25 20 6 0 17 10 25 21 8 12 25 32 38 45 12
13 22 30 22 39 0 23 28 18 55 -10z"/>
<path d="M620 910 c0 -5 -7 -10 -16 -10 -25 0 -44 -26 -44 -60 0 -17 6 -38 14
-46 16 -16 76 -19 76 -4 0 6 25 10 55 10 30 0 55 -4 55 -10 0 -5 14 -10 31
-10 32 0 69 30 69 56 0 27 -24 64 -42 64 -10 0 -18 5 -18 10 0 6 -37 10 -90
10 -53 0 -90 -4 -90 -10z"/>
<path d="M1040 910 c0 -5 -7 -10 -16 -10 -40 0 -61 -75 -30 -106 16 -16 76
-19 76 -4 0 6 25 10 55 10 30 0 55 -4 55 -10 0 -5 14 -10 31 -10 32 0 69 30
69 56 0 27 -24 64 -42 64 -10 0 -18 5 -18 10 0 6 -37 10 -90 10 -53 0 -90 -4
-90 -10z"/>
<path d="M740 510 c0 -16 5 -30 10 -30 6 0 10 -7 10 -15 0 -20 65 -85 85 -85
8 0 15 -4 15 -10 0 -6 27 -10 60 -10 33 0 60 4 60 10 0 6 7 10 15 10 20 0 85
65 85 85 0 8 5 15 10 15 6 0 10 14 10 30 l0 30 -180 0 -180 0 0 -30z"/>
<path d="M153 1605 c-17 -19 -16 -73 1 -91 33 -32 106 -1 106 46 0 47 -77 80
-107 45z"/>
<path d="M1593 1605 c-17 -19 -16 -73 1 -91 33 -32 106 -1 106 46 0 47 -77 80
-107 45z"/>
<path d="M93 1365 c-17 -19 -16 -73 1 -91 33 -32 106 -1 106 46 0 47 -77 80
-107 45z"/>
<path d="M1653 1365 c-17 -19 -16 -73 1 -91 33 -32 106 -1 106 46 0 47 -77 80
-107 45z"/>
<path d="M33 1125 c-17 -19 -16 -73 1 -91 33 -32 106 -1 106 46 0 47 -77 80
-107 45z"/>
<path d="M1713 1125 c-17 -19 -16 -73 1 -91 19 -18 63 -18 82 0 8 8 14 29 14
46 0 17 -6 38 -14 46 -19 18 -67 18 -83 -1z"/>
</g>
</svg>
