<?xml version="1.0" standalone="no"?>
<!DOCTYPE svg PUBLIC "-//W3C//DTD SVG 20010904//EN"
 "http://www.w3.org/TR/2001/REC-SVG-20010904/DTD/svg10.dtd">
<svg version="1.0" xmlns="http://www.w3.org/2000/svg"
 width="103.000000pt" height="111.000000pt" viewBox="0 0 103.000000 111.000000"
 preserveAspectRatio="xMidYMid meet">

<g transform="translate(0.000000,111.000000) scale(0.100000,-0.100000)"
fill="#000000" stroke="none">
<path d="M288 1078 c-7 -13 -18 -36 -24 -52 -16 -45 -38 -47 -31 -3 4 24 1 39
-8 47 -19 16 -41 -19 -71 -117 -24 -78 -42 -103 -73 -103 -31 0 -1 91 48 144
20 22 22 26 6 18 -78 -40 -117 -150 -114 -322 1 -58 1 -170 1 -250 -1 -138 0
-148 25 -198 15 -30 39 -62 54 -73 15 -11 37 -34 48 -52 23 -37 58 -57 100
-57 20 0 34 -8 45 -25 16 -25 18 -25 161 -25 l144 0 28 35 c30 37 59 47 50 18
-13 -48 -13 -48 30 -51 37 -3 46 1 86 40 24 24 51 55 58 70 8 15 34 38 59 51
72 37 88 77 91 222 2 107 0 125 -19 162 -22 43 -21 73 4 73 15 0 17 7 14 63
-3 71 -76 167 -127 167 -16 0 -18 -9 -18 -89 0 -75 -4 -93 -20 -112 -24 -26
-75 -49 -110 -49 -38 0 -30 -15 19 -34 68 -26 113 -82 121 -150 7 -51 4 -63
-25 -122 -52 -107 -172 -183 -300 -190 l-55 -3 57 9 c72 12 147 48 127 61 -11
8 -9 14 12 32 42 36 80 93 95 144 41 134 -61 233 -258 251 l-58 5 0 -46 c0
-52 -3 -50 95 -62 70 -9 116 -40 135 -90 32 -85 -14 -182 -109 -230 -27 -14
-49 -16 -98 -12 -36 4 -65 2 -68 -3 -4 -6 -17 -5 -33 4 -15 7 -33 11 -40 8 -8
-2 -31 13 -53 34 -21 21 -39 32 -39 25 0 -7 -4 -9 -10 -6 -5 3 -10 10 -10 15
0 10 19 8 39 -4 23 -15 31 15 31 129 l0 111 -56 54 c-66 65 -84 101 -84 170 0
128 139 260 307 291 113 21 239 -5 319 -66 18 -13 53 -29 79 -35 26 -6 60 -17
75 -25 47 -24 63 -11 57 49 -5 53 -17 68 -116 144 l-34 27 -249 2 c-211 2
-250 0 -255 -12 -7 -19 -23 -19 -23 0 0 22 -17 18 -32 -7z m542 -38 c11 -1 10
-4 -4 -15 -23 -17 -52 -20 -61 -5 -10 17 6 32 29 26 11 -3 28 -6 36 -6z m58
-32 c12 -12 17 -48 7 -48 -3 0 -22 7 -43 16 l-37 15 25 14 c31 18 33 18 48 3z
m97 -70 c4 -16 5 -31 2 -34 -11 -12 -46 35 -52 71 l-7 40 26 -24 c14 -13 28
-37 31 -53z m-855 -402 c0 -5 -7 -3 -15 4 -8 7 -12 17 -9 22 7 10 24 -9 24
-26z m10 -104 l-1 -27 -19 24 c-27 32 -27 55 0 41 13 -7 20 -21 20 -38z m-56
-63 c26 -21 34 -34 50 -87 l7 -22 -35 20 c-44 27 -54 40 -62 78 -8 38 3 40 40
11z m160 -50 c1 -49 -18 -63 -36 -25 -9 20 -9 29 0 38 7 7 12 21 12 32 0 41
23 -3 24 -45z m714 4 c-2 -49 -36 -103 -64 -103 -20 0 -4 81 23 118 33 44 44
40 41 -15z m-743 -173 c3 -5 -3 -10 -14 -10 -12 0 -21 5 -21 10 0 6 6 10 14
10 8 0 18 -4 21 -10z m262 -26 c-3 -3 -12 -4 -19 -1 -8 3 -5 6 6 6 11 1 17 -2
13 -5z"/>
<path d="M933 278 c-20 -26 -26 -41 -15 -34 12 7 36 46 29 46 -3 0 -9 -6 -14
-12z"/>
<path d="M491 986 c2 -2 36 -6 74 -9 42 -3 58 -2 40 3 -30 8 -122 13 -114 6z"/>
<path d="M399 961 c-56 -22 -91 -45 -82 -54 12 -13 33 -7 33 8 0 18 5 18 30 5
13 -7 21 -7 26 2 5 7 3 8 -6 3 -9 -6 -11 -4 -6 4 5 7 15 10 23 7 8 -3 11 -1 8
4 -4 6 9 17 27 25 50 21 3 18 -53 -4z"/>
<path d="M455 950 c-11 -5 -16 -9 -12 -9 5 -1 -8 -16 -27 -35 -30 -28 -36 -40
-36 -76 l0 -43 30 42 c37 50 78 77 142 90 61 14 89 3 122 -46 22 -32 26 -48
26 -116 0 -70 -3 -81 -25 -103 -14 -14 -25 -27 -25 -29 0 -13 59 -3 87 15 113
68 64 224 -94 304 -35 17 -153 21 -188 6z"/>
<path d="M477 870 c-38 -33 -57 -91 -57 -174 0 -50 10 -56 97 -56 66 0 80 6
98 41 29 55 13 152 -31 191 -37 33 -68 32 -107 -2z m67 -29 c10 -11 18 -36 18
-56 0 -53 -25 -75 -84 -75 -52 0 -64 14 -22 24 16 4 30 19 40 41 17 43 9 68
-20 60 -21 -6 -21 -6 -2 9 26 21 49 20 70 -3z"/>
<path d="M259 828 c-31 -69 -33 -193 -5 -256 38 -83 44 -65 46 129 0 102 -3
179 -8 179 -5 0 -20 -24 -33 -52z"/>
<path d="M373 630 c1 -66 6 -103 12 -100 11 6 8 116 -5 170 -6 25 -8 5 -7 -70z"/>
<path d="M461 405 c1 -86 9 -116 22 -82 8 22 20 -21 13 -48 -8 -32 -30 -41
-62 -27 -22 11 -24 17 -24 84 0 94 -9 148 -25 148 -13 0 -13 -40 1 -178 14
-135 151 -164 221 -45 21 37 25 53 21 102 -3 38 -11 68 -27 89 -29 41 -47 42
-26 2 23 -44 17 -143 -9 -148 -29 -6 -38 11 -21 44 11 23 12 38 4 66 -9 34
-58 88 -80 88 -6 0 -9 -40 -8 -95z"/>
</g>
</svg>
